<?xml version="1.0" encoding="utf-8"?>
<!-- Generator: Adobe Illustrator 19.2.1, SVG Export Plug-In . SVG Version: 6.00 Build 0)  -->
<svg version="1.1" id="Layer_1" xmlns="http://www.w3.org/2000/svg" xmlns:xlink="http://www.w3.org/1999/xlink" x="0px" y="0px"
	 viewBox="0 0 31 30" style="enable-background:new 0 0 31 30;" xml:space="preserve">
<style type="text/css">
	.st0{fill:none;enable-background:new    ;}
	.st1{fill:#4F4F4F;enable-background:new    ;}
	.st2{fill:#4F4F4F;}
</style>
<path class="st0" d="z"/>
<path class="st1" d="M0,0"/>
<path class="st2" d="M28.9,30H2.1C1,30,0,29.1,0,27.9V2.1C0,0.9,1,0,2.1,0h26.7C30,0,31,0.9,31,2.1V28C31,29.1,30,30,28.9,30z
	 M2.1,0.9c-0.7,0-1.2,0.5-1.2,1.2V28c0,0.6,0.5,1.2,1.2,1.2h26.7c0.7,0,1.2-0.5,1.2-1.2V2.1c0-0.6-0.5-1.2-1.2-1.2
	C28.8,0.9,2.1,0.9,2.1,0.9z"/>
<path class="st2" d="M21.7,30h-5.6V18.7h-3.9v-5.3h3.9v-2.8c0-3.9,2.4-6.3,6.3-6.3c1.7,0,3.1,0.1,3.6,0.2l0.4,0.1v4.8h-2.9
	c-1.5,0-1.8,0.5-1.8,1.7v2.4h4.6l-0.7,5.3h-3.9C21.7,18.8,21.7,30,21.7,30z M17,29.1h3.8V17.8h4l0.5-3.5h-4.4V11
	c0-1.2,0.3-2.6,2.7-2.6h1.9v-3c-0.6-0.1-1.8-0.1-3-0.1c-3.4,0-5.4,2-5.4,5.4v3.7h-3.9v3.5H17V29.1z"/>
</svg>
