<?xml version="1.0" encoding="utf-8"?>
<!-- Generator: Adobe Illustrator 19.2.1, SVG Export Plug-In . SVG Version: 6.00 Build 0)  -->
<svg version="1.1" id="Layer_1" xmlns="http://www.w3.org/2000/svg" xmlns:xlink="http://www.w3.org/1999/xlink" x="0px" y="0px"
	 viewBox="0 0 34 42" style="enable-background:new 0 0 34 42;" xml:space="preserve">
<style type="text/css">
	.st0{fill:none;enable-background:new    ;}
	.st1{fill:#4F4F4F;enable-background:new    ;}
	.st2{fill:#4F4F4F;}
</style>
<path class="st0" d="z"/>
<path class="st1" d="M0,0"/>
<path class="st2" d="M15.6,20.6c-0.3,0-0.7-0.1-1-0.4l0,0l0,0L3,4.4l0.3-0.2C5.2,2.5,7,1.4,8.9,0.7c2.4-0.8,4.9-1,7.7-0.5l0.3,0.1
	v19.1v0.1c-0.2,0.6-0.5,1-0.9,1.1C15.9,20.5,15.7,20.6,15.6,20.6z M15.2,19.6c0.2,0.1,0.4,0.2,0.6,0.1c0.2-0.1,0.3-0.2,0.4-0.5V0.9
	C10.4,0,6.8,2.2,4.1,4.5L15.2,19.6z"/>
<path class="st2" d="M20.7,23.4h-0.1c-1.1-0.4-1.5-1.1-1.5-2.2v-0.1l7.8-10.3l0.3,0.2c3.4,2.1,5.9,5.8,6.6,9.9l0.1,0.4L20.7,23.4z
	 M20,21.3c0,0.7,0.3,1,0.8,1.2l12.1-1.9c-0.4-2-1.2-3.8-2.4-5.4c-1.2-1.6-2.5-2.7-3.4-3.3L20,21.3z"/>
<path class="st2" d="M26.3,40.2l-6.6-11.1V29c-0.2-1.1,0.3-1.9,1.4-2.1h0.1L34,30.6L33.8,31c-1.2,4.2-3.9,7.5-7.2,9L26.3,40.2z
	 M20.5,28.8l6.2,10.3c2.8-1.4,5.2-4.4,6.3-8l-11.8-3.4C20.6,27.9,20.4,28.2,20.5,28.8z"/>
<path class="st2" d="M15.5,42c-4,0-6.9-1.4-9-4.3l-0.2-0.3l8-9h0.2c0.6-0.1,2-0.3,2.3,1l0,0l0.4,12.4h-0.4C16.4,42,15.9,42,15.5,42z
	 M7.4,37.5c2,2.7,5,3.8,9,3.6L16,29.6c-0.1-0.4-0.4-0.5-1.3-0.4L7.4,37.5z"/>
<path class="st2" d="M1.2,30.2L1,29.9c-1.3-3.6-1.3-7.3,0-10.9l0.1-0.4l12,4.4l0.1,0.1c0.6,0.7,1.2,1.7,0.1,2.9h0h-0.1L1.2,30.2z
	 M1.7,19.6c-1.1,3.2-1.1,6.3,0,9.6l11.1-3.9c0.4-0.6,0.4-1-0.2-1.7L1.7,19.6z"/>
</svg>
