<?xml version="1.0" encoding="utf-8"?>
<!-- Generator: Adobe Illustrator 19.2.1, SVG Export Plug-In . SVG Version: 6.00 Build 0)  -->
<svg version="1.1" id="Layer_1" xmlns="http://www.w3.org/2000/svg" xmlns:xlink="http://www.w3.org/1999/xlink" x="0px" y="0px"
	 viewBox="0 0 40 32" style="enable-background:new 0 0 40 32;" xml:space="preserve">
<style type="text/css">
	.st0{fill:none;enable-background:new    ;}
	.st1{fill:#4F4F4F;}
</style>
<path class="st0" d="z"/>
<path class="st0" d="M0,0"/>
<g>
	<path class="st1" d="M9,32c-1.1,0-2.2-0.1-3.3-0.3c-1.6-0.2-2.7-1.1-3.3-2.5c-0.8-1.8-1.5-3.4-2.1-5c-0.4-0.9-0.4-1.8,0-2.5
		c0.4-0.8,1.1-1.3,2-1.6c2.4-0.7,4.9-1.4,7.3-2.1c1.5-0.4,2.9,0.1,3.6,1.6c0.5,1,1.1,2.1,1.6,3.2c0,0.1,0,0.1,0.1,0.1H15
		c5.2-1.6,9.5-4.5,12.9-8.7l-0.6-0.6c-0.6-0.7-1.2-1.4-1.8-2.1c-1.1-1.2-1.1-2.6-0.1-3.9c1.9-2.5,3.4-4.4,4.9-6.1
		c0.7-1,1.4-1.4,2.2-1.5s1.6,0.3,2.3,1c0.8,0.7,1.5,1.5,2.3,2.2c0.5,0.5,1,0.9,1.5,1.4c1.2,1.2,1.6,2.6,1.2,4.3
		c-1,4.2-3.3,8-7.1,11.8c-5.3,5.3-11.5,8.8-18.6,10.5C12.4,31.8,10.7,32,9,32z M10.7,18.9c-0.2,0-0.4,0-0.7,0.1
		c-2.4,0.7-4.9,1.4-7.3,2.1c-0.7,0.2-1.2,0.6-1.4,1.1s-0.2,1.1,0,1.7C2,25.4,2.6,27,3.4,28.8c0.5,1.1,1.3,1.7,2.5,1.9
		c2.6,0.4,5.3,0.3,8-0.3c6.8-1.6,12.9-5.1,18.1-10.2c3.7-3.7,5.9-7.4,6.9-11.4C39.2,7.4,39,6.4,38,5.4c-0.5-0.5-1-0.9-1.5-1.4
		c-0.8-0.7-1.5-1.5-2.3-2.2c-0.5-0.5-1.1-0.7-1.6-0.7s-1,0.3-1.4,0.9c-1.4,1.7-2.9,3.6-4.9,6.1c-0.7,0.9-0.7,1.7,0.1,2.6
		c0.6,0.7,1.2,1.4,1.8,2.1l1,1.2l-0.1,0.4c0,0.1,0,0.1-0.1,0.2c-3.5,4.4-8.1,7.5-13.6,9.3c-0.6,0.2-1.1,0-1.4-0.6
		c-0.5-1.1-1-2.1-1.6-3.1C12.1,19.3,11.5,18.9,10.7,18.9z M28.2,13.9L28.2,13.9L28.2,13.9z"/>
</g>
</svg>
