<?xml version="1.0" encoding="utf-8"?>
<!-- Generator: Adobe Illustrator 19.2.1, SVG Export Plug-In . SVG Version: 6.00 Build 0)  -->
<svg version="1.1" id="Layer_1" xmlns="http://www.w3.org/2000/svg" xmlns:xlink="http://www.w3.org/1999/xlink" x="0px" y="0px"
	 viewBox="0 0 36 37" style="enable-background:new 0 0 36 37;" xml:space="preserve">
<style type="text/css">
	.st0{fill:none;enable-background:new    ;}
	.st1{fill:#4F4F4F;enable-background:new    ;}
	.st2{fill:#4F4F4F;}
</style>
<path class="st0" d="z"/>
<path class="st1" d="M0,0"/>
<g>
	<path class="st2" d="M6.5,37v-2.7c0-1.4,0-2.7,0-4.1c0-0.1,0-0.1-0.1-0.2c-3.2-2.5-5.2-5.7-6-9.4C-0.8,15.1,0.5,10.2,4.2,6
		c3.6-4,8.2-6,13.7-6.1C18,0,18,0,18,0c5.4,0,10,2,13.7,6c5.5,6,5.7,15.2,0.5,21.4c-3.5,4.1-8,6.3-13.5,6.6
		c-1.8,0.1-3.6-0.1-5.5-0.6c-0.1,0-0.2,0-0.3,0c-1.3,0.7-2.7,1.5-4,2.2l-1.2,0.7c-0.1,0-0.2,0.1-0.3,0.1L6.5,37z M18,1L18,1
		C12.7,1.1,8.4,3,5,6.8c-3.5,3.9-4.7,8.5-3.6,13.7c0.8,3.4,2.7,6.4,5.6,8.8c0.3,0.3,0.5,0.6,0.5,1c0,1.4,0,2.7,0,4.1v0.9l0.9-0.5
		c1.3-0.7,2.7-1.5,4-2.2c0.3-0.2,0.7-0.2,1-0.1c1.8,0.5,3.5,0.6,5.2,0.6c5.2-0.2,9.5-2.3,12.8-6.2c4.9-5.8,4.7-14.4-0.5-20
		C27.5,3,23.1,1,18,1z M19.7,23.5l-4.6-4.9l-8.5,4.7L6,22.6l10.1-10.9l4.7,4.9l8.4-4.7l0.6,0.8L19.7,23.5z M15.4,17.2l4.4,4.7
		l6.9-7.5l-6,3.4l-4.5-4.7l-7,7.5L15.4,17.2z"/>
</g>
</svg>
