<?xml version="1.0" encoding="utf-8"?>
<!-- Generator: Adobe Illustrator 19.2.1, SVG Export Plug-In . SVG Version: 6.00 Build 0)  -->
<svg version="1.1" id="Layer_1" xmlns="http://www.w3.org/2000/svg" xmlns:xlink="http://www.w3.org/1999/xlink" x="0px" y="0px"
	 viewBox="0 0 31 31" style="enable-background:new 0 0 31 31;" xml:space="preserve">
<style type="text/css">
	.st0{fill:none;enable-background:new    ;}
	.st1{fill:#1C449B;}
</style>
<path class="st0" d="z"/>
<g>
	<path class="st1" d="M15.5,31c-4.1,0-4.6,0-6.2-0.1c-1.5-0.1-2.7-0.3-3.8-0.7c-1.1-0.4-2-1-2.8-1.8c-0.8-0.8-1.4-1.7-1.8-2.8
		c-0.4-1.1-0.7-2.3-0.7-3.8C0,20.1,0,19.6,0,15.5c0-4.1,0-4.6,0.1-6.2c0.1-1.5,0.3-2.7,0.7-3.8c0.4-1.1,1-2,1.8-2.8
		c0.8-0.8,1.7-1.4,2.8-1.8c1.1-0.4,2.3-0.7,3.8-0.7C10.9,0,11.4,0,15.5,0c4.1,0,4.6,0,6.2,0.1c1.5,0.1,2.7,0.3,3.8,0.7
		c1.1,0.4,2,1,2.8,1.8c0.8,0.8,1.4,1.7,1.8,2.8c0.4,1.1,0.7,2.3,0.7,3.8c0.1,1.6,0.1,2.1,0.1,6.2s0,4.6-0.1,6.2
		c-0.1,1.5-0.3,2.7-0.7,3.8c-0.4,1.1-1,2-1.8,2.8c-0.8,0.8-1.7,1.4-2.8,1.8c-1.1,0.4-2.3,0.7-3.8,0.7C20.1,31,19.6,31,15.5,31z
		 M15.5,0.9c-4.1,0-4.6,0-6.2,0.1C7.9,1.1,6.8,1.3,5.8,1.7c-1,0.4-1.8,0.9-2.5,1.6C2.6,4.1,2.1,4.8,1.7,5.8C1.3,6.9,1.1,7.9,1,9.3
		c-0.1,1.6-0.1,2.1-0.1,6.2c0,4.1,0,4.6,0.1,6.2c0.1,1.4,0.3,2.5,0.7,3.5c0.4,1,0.9,1.8,1.6,2.5c0.7,0.7,1.5,1.2,2.5,1.6
		c1,0.4,2.1,0.6,3.5,0.7c1.6,0.1,2.1,0.1,6.2,0.1c4,0,4.6,0,6.2-0.1c1.4-0.1,2.5-0.3,3.5-0.7c1-0.4,1.8-0.9,2.5-1.6
		c0.7-0.7,1.2-1.5,1.6-2.5c0.4-1,0.6-2.1,0.7-3.5c0.1-1.6,0.1-2.1,0.1-6.2s0-4.6-0.1-6.2c-0.1-1.4-0.3-2.5-0.7-3.5
		c-0.4-1-0.9-1.8-1.6-2.5c-0.7-0.7-1.5-1.2-2.5-1.6c-1-0.4-2.1-0.6-3.5-0.7C20.1,1,19.5,0.9,15.5,0.9z M15.5,28.3
		c-4,0-4.5,0-6.1-0.1c-1.5-0.1-2.4-0.3-2.9-0.5c-0.8-0.3-1.3-0.7-1.9-1.2c-0.6-0.6-0.9-1.1-1.2-1.9c-0.2-0.6-0.5-1.4-0.5-2.9
		c-0.1-1.6-0.1-2.1-0.1-6.1c0-4,0-4.5,0.1-6.1C2.9,7.9,3.1,7,3.3,6.5C3.6,5.7,4,5.2,4.6,4.6C5.1,4,5.7,3.6,6.5,3.4
		C7,3.1,7.9,2.9,9.4,2.8c1.6-0.1,2.1-0.1,6.1-0.1c2,0,3,0,3.8,0c0.9,0,1.5,0,2.3,0.1c1.5,0.1,2.4,0.3,2.9,0.5
		c0.8,0.3,1.3,0.7,1.9,1.2c0.6,0.6,0.9,1.1,1.2,1.9c0.2,0.6,0.5,1.4,0.5,2.9c0.1,1.6,0.1,2.1,0.1,6.1c0,4,0,4.5-0.1,6.1
		c-0.1,1.5-0.3,2.4-0.5,2.9c-0.3,0.8-0.7,1.3-1.2,1.9c-0.6,0.6-1.1,0.9-1.9,1.2c-0.6,0.2-1.4,0.5-2.9,0.5
		C20,28.3,19.5,28.3,15.5,28.3z M15.5,3.6c-4,0-4.5,0-6.1,0.1C8,3.8,7.3,4,6.8,4.2c-0.6,0.3-1.1,0.5-1.6,1c-0.5,0.5-0.8,0.9-1,1.6
		C4,7.3,3.8,8.1,3.7,9.5c-0.1,1.6-0.1,2-0.1,6.1c0,4,0,4.5,0.1,6.1C3.8,23,4,23.7,4.2,24.2c0.3,0.6,0.5,1.1,1,1.6
		c0.5,0.5,0.9,0.8,1.6,1C7.3,27,8,27.2,9.4,27.3c1.6,0.1,2,0.1,6.1,0.1c4,0,4.5,0,6.1-0.1c1.4-0.1,2.1-0.3,2.6-0.5
		c0.6-0.3,1.1-0.5,1.6-1c0.5-0.5,0.8-0.9,1-1.6c0.2-0.5,0.4-1.2,0.5-2.6c0.1-1.6,0.1-2,0.1-6.1c0-4,0-4.5-0.1-6.1
		c-0.1-1.4-0.3-2.1-0.5-2.6c-0.3-0.6-0.5-1.1-1-1.6c-0.5-0.5-0.9-0.8-1.6-1c-0.5-0.2-1.2-0.4-2.6-0.5c-0.8,0-1.4-0.1-2.3-0.1l0-0.5
		l0,0.5C18.5,3.7,17.5,3.6,15.5,3.6z"/>
	<path class="st1" d="M15.5,23.7c-4.5,0-8.2-3.7-8.2-8.2s3.7-8.2,8.2-8.2c4.5,0,8.2,3.7,8.2,8.2S20,23.7,15.5,23.7z M15.5,8.3
		c-4,0-7.3,3.3-7.3,7.3s3.3,7.3,7.3,7.3c4,0,7.3-3.3,7.3-7.3S19.5,8.3,15.5,8.3z M15.5,21c-3,0-5.5-2.5-5.5-5.5c0-3,2.5-5.5,5.5-5.5
		c3,0,5.5,2.5,5.5,5.5C21,18.5,18.5,21,15.5,21z M15.5,11C13,11,11,13,11,15.5c0,2.5,2,4.5,4.5,4.5c2.5,0,4.5-2,4.5-4.5
		C20,13,18,11,15.5,11z"/>
	<path class="st1" d="M23.5,9.8c-1.3,0-2.3-1-2.3-2.3s1-2.3,2.3-2.3c1.3,0,2.3,1,2.3,2.3S24.8,9.8,23.5,9.8z M23.5,6.1
		c-0.7,0-1.3,0.6-1.3,1.3s0.6,1.3,1.3,1.3c0.7,0,1.3-0.6,1.3-1.3S24.3,6.1,23.5,6.1z"/>
</g>
</svg>
