<?xml version="1.0" encoding="utf-8"?>
<!-- Generator: Adobe Illustrator 19.2.1, SVG Export Plug-In . SVG Version: 6.00 Build 0)  -->
<svg version="1.1" id="Layer_1" xmlns="http://www.w3.org/2000/svg" xmlns:xlink="http://www.w3.org/1999/xlink" x="0px" y="0px"
	 viewBox="0 0 31 30" style="enable-background:new 0 0 31 30;" xml:space="preserve">
<style type="text/css">
	.st0{fill:none;enable-background:new    ;}
	.st1{fill:#1C449B;}
</style>
<path class="st0" d="z"/>
<path class="st1" d="M28.9,30H2.1C1,30,0,29.1,0,27.9V2.1C0,0.9,1,0,2.1,0h26.7C30,0,31,0.9,31,2.1v25.9C31,29.1,30,30,28.9,30z
	 M2.1,0.9c-0.7,0-1.2,0.5-1.2,1.2v25.9c0,0.6,0.5,1.2,1.2,1.2h26.7c0.7,0,1.2-0.5,1.2-1.2V2.1c0-0.6-0.5-1.2-1.2-1.2H2.1z"/>
<path class="st1" d="M21.7,30h-5.6V18.7h-3.9v-5.3h3.9v-2.8c0-3.9,2.4-6.3,6.3-6.3c1.7,0,3.1,0.1,3.6,0.2l0.4,0.1v4.8l-2.9,0
	c-1.5,0-1.8,0.5-1.8,1.7v2.4h4.6l-0.7,5.3h-3.9V30z M17,29.1h3.8V17.8h4l0.5-3.5h-4.4v-3.3c0-1.2,0.3-2.6,2.7-2.6l1.9,0V5.4
	c-0.6-0.1-1.8-0.1-3-0.1c-3.4,0-5.4,2-5.4,5.4v3.7h-3.9v3.5H17V29.1z"/>
</svg>
