<?xml version="1.0" encoding="utf-8"?>
<!-- Generator: Adobe Illustrator 19.2.1, SVG Export Plug-In . SVG Version: 6.00 Build 0)  -->
<svg version="1.1" id="Layer_1" xmlns="http://www.w3.org/2000/svg" xmlns:xlink="http://www.w3.org/1999/xlink" x="0px" y="0px"
	 viewBox="0 0 32 43" style="enable-background:new 0 0 32 43;" xml:space="preserve">
<style type="text/css">
	.st0{fill:none;enable-background:new    ;}
	.st1{fill:#1C449B;}
</style>
<path class="st0" d="M0,0"/>
<path class="st1" d="M2.8,43c-0.4,0-0.8-0.1-1.1-0.2C0.3,42.2,0,40.9,0,39.9V4.2c0-1.5,1-4.3,4.6-4.3h23.1c1.6,0,2.8,0.4,3.5,1.3
	c0.8,1,1,2.5,0.6,4.7c-0.9,4.3-4,19-4.3,20c-0.3,1.2-1,3.6-4.3,3.6h-6.9l0,0C16,29.7,5.1,42.1,5.1,42.1l0,0C4.4,42.8,3.5,43,2.8,43z
	 M4.6,0.9C1.7,0.9,1,3,1,4.2v35.7c0,1.6,0.8,1.9,1.1,2s1.4,0.3,2.3-0.5c0.4-0.5,11-12.4,11.1-12.6c0.3-0.3,0.5-0.4,0.8-0.4h6.9
	c2.6,0,3.1-1.7,3.4-2.9c0.3-1,3.2-15,4.3-20c0.4-1.9,0.3-3-0.4-3.7c-0.5-0.6-1.4-0.9-2.7-0.9L4.6,0.9L4.6,0.9z M16.3,29.4L16.3,29.4
	L16.3,29.4z M5.3,35c-0.1,0-0.1,0-0.2,0c-0.2-0.1-0.4-0.3-0.4-0.5V6.2c0-0.9,0.8-1.7,1.7-1.7h18.7c0.5,0,0.9,0.2,1.3,0.6
	c0.3,0.4,0.4,0.9,0.3,1.4l-1,4.9c-0.2,0.8-0.9,1.4-1.7,1.4h-9c-0.7,0-1.4,0.6-1.4,1.3v1.1c0,0.7,0.6,1.3,1.4,1.3h7.6
	c0.5,0,1,0.2,1.3,0.6s0.4,0.9,0.4,1.3c-0.1,0.8-0.9,4.5-1,5c-0.1,0.7-0.8,1.4-1.7,1.4h-6.2c-1.2,0-1.3,0-2,0.8
	c-0.7,0.9-7.3,8.9-7.6,9.2C5.6,34.9,5.5,35,5.3,35z M6.5,5.5c-0.4,0-0.8,0.3-0.8,0.7v27.1c1.8-2.2,6.2-7.6,6.9-8.3
	c0.9-1.1,1.3-1.1,2.7-1.2h6.2c0.5,0,0.7-0.4,0.8-0.6l0,0c0.1-0.4,0.9-4.2,1-5c0.1-0.3-0.1-0.5-0.1-0.6c-0.1-0.2-0.3-0.3-0.5-0.3H15
	c-1.3,0-2.3-1-2.3-2.3v-1.1c0-1.2,1-2.3,2.3-2.3h9c0.4,0,0.7-0.3,0.8-0.6l0.9-4.6c0.1-0.3-0.1-0.5-0.1-0.6c-0.1-0.2-0.3-0.3-0.5-0.3
	L6.5,5.5L6.5,5.5z"/>
</svg>
