<?xml version="1.0" encoding="utf-8"?>
<!-- Generator: Adobe Illustrator 19.2.1, SVG Export Plug-In . SVG Version: 6.00 Build 0)  -->
<svg version="1.1" id="Layer_1" xmlns="http://www.w3.org/2000/svg" xmlns:xlink="http://www.w3.org/1999/xlink" x="0px" y="0px"
	 viewBox="0 0 51 30" style="enable-background:new 0 0 51 30;" xml:space="preserve">
<style type="text/css">
	.st0{fill:none;enable-background:new    ;}
	.st1{fill:#1C449B;}
</style>
<path class="st0" d="z"/>
<g>
	<g>
		<path class="st1" d="M12.9,23.6c-1.7,0-3.4-0.6-4.6-1.8c-1.3-1.2-2.1-3-2.1-4.7c0-1.8,0.7-3.4,2-4.7c1.3-1.2,3-1.9,4.7-1.9
			c0,0,0,0,0,0c1.8,0,3.5,0.7,4.7,1.9c1.3,1.2,1.9,2.9,1.9,4.6c0,3.5-2.8,6.4-6.3,6.5C13.1,23.6,13,23.6,12.9,23.6z M12.8,11.5
			c-1.4,0-2.9,0.6-3.9,1.6c-1.1,1.1-1.7,2.5-1.7,4c0,1.5,0.6,3,1.8,4.1c1.1,1.1,2.7,1.6,4.2,1.6c3-0.1,5.4-2.6,5.4-5.6
			c0-1.5-0.6-2.9-1.7-3.9c-1.1-1.1-2.5-1.6-4-1.6c0,0,0,0,0,0L12.8,11.5C12.8,11.5,12.8,11.5,12.8,11.5z M12.9,21.5
			C12.9,21.5,12.9,21.5,12.9,21.5L12.9,21.5c-2.5,0-4.5-2-4.5-4.4c0-1.2,0.5-2.3,1.3-3.1c0.9-0.8,2-1.3,3.2-1.3c0,0,0,0,0,0
			c2.5,0,4.5,2,4.5,4.4c0,1.2-0.5,2.3-1.3,3.1C15.2,21.1,14.1,21.5,12.9,21.5z M12.9,20.6C12.9,20.6,12.9,20.6,12.9,20.6
			c0.9,0,1.8-0.4,2.5-1c0.7-0.7,1.1-1.6,1.1-2.5c0-2-1.6-3.5-3.6-3.5c0,0,0,0,0,0c-0.9,0-1.8,0.4-2.5,1c-0.7,0.7-1.1,1.5-1,2.5
			C9.3,19,10.9,20.6,12.9,20.6L12.9,20.6z"/>
		<path class="st1" d="M38,19.6c-0.7,0-1.3-0.3-1.8-0.7c-0.5-0.5-0.7-1.1-0.7-1.7c0-1.4,1.1-2.5,2.5-2.5h0c0.7,0,1.3,0.3,1.8,0.7
			c0.5,0.5,0.7,1.1,0.7,1.7C40.5,18.5,39.3,19.6,38,19.6z M38,15.5c-0.9,0-1.6,0.7-1.6,1.6c0,0.4,0.2,0.8,0.5,1.1
			c0.3,0.3,0.7,0.5,1.2,0.5c0.9,0,1.6-0.7,1.6-1.6c0-0.4-0.2-0.8-0.5-1.1C38.8,15.7,38.4,15.5,38,15.5z"/>
		<path class="st1" d="M38,23.6c-1.7,0-3.4-0.6-4.6-1.8c-1.3-1.2-2-2.9-2-4.7c0-1.8,0.7-3.4,2-4.7c1.3-1.2,3-1.9,4.7-1.9
			c0,0,0,0,0,0c1.8,0,3.4,0.7,4.7,1.9c1.3,1.2,1.9,2.9,1.9,4.6c0,3.5-2.8,6.4-6.4,6.5C38.1,23.6,38.1,23.6,38,23.6z M37.9,11.5
			c-1.4,0-2.9,0.6-3.9,1.6c-1.1,1.1-1.7,2.5-1.7,4c0,1.5,0.6,3,1.8,4c1.1,1.1,2.6,1.6,4.2,1.6c3.1-0.1,5.5-2.6,5.5-5.6
			c0-1.5-0.6-2.9-1.7-4c-1.1-1.1-2.5-1.6-4-1.6c0,0,0,0,0,0L37.9,11.5C37.9,11.5,37.9,11.5,37.9,11.5z M38,21.5
			C38,21.5,38,21.5,38,21.5L38,21.5c-1.2,0-2.3-0.5-3.2-1.3c-0.9-0.8-1.3-2-1.3-3.1c0-2.4,2-4.4,4.5-4.4c2.5,0,4.5,2,4.5,4.4
			c0,1.2-0.5,2.3-1.3,3.1C40.3,21.1,39.2,21.5,38,21.5z M38,13.6c-2,0-3.6,1.6-3.6,3.5c0,0.9,0.4,1.8,1.1,2.5c0.7,0.7,1.6,1,2.5,1h0
			c0,0,0,0,0,0c0.9,0,1.8-0.4,2.5-1c0.7-0.7,1.1-1.5,1.1-2.5C41.5,15.2,39.9,13.6,38,13.6z"/>
		<path class="st1" d="M37.9,30c-1,0-2-0.1-3-0.4c-2.5-0.6-4.6-1.9-6.4-3.7c-0.1-0.1-0.2-0.2-0.3-0.3l-0.7,1
			c-0.6,0.8-1.1,1.6-1.7,2.4l-0.4,0.6l-1-1.4c-0.6-0.9-1.2-1.7-1.7-2.5c-2.1,2.3-4.7,3.7-7.8,4.1c-1.8,0.3-3.6,0.2-5.4-0.3
			c-2.5-0.7-4.6-2-6.3-3.9c-1.7-1.9-2.7-4-3.1-6.5c-0.3-1.5-0.2-3.3,0.2-5c0.4-1.5,1.1-3,2-4.3c0,0,0,0,0,0C2.1,8.7,1.6,7.5,0.7,6.2
			C0.6,6.1,0.5,5.9,0.3,5.7C0.2,5.6,0.2,5.5,0.1,5.4L0,5.3V4.5l0.6,0.1c0,0,0,0,0,0h0.1c2.5,0,5,0,7.5,0c0,0,0,0,0.1,0
			c1.7-1.1,3.7-2,5.7-2.7c1.4-0.5,2.9-0.9,4.4-1.2c1.5-0.3,3-0.5,4.4-0.6c3.7-0.3,6.6,0.1,8.4,0.4c1.3,0.2,2.6,0.5,4.2,1
			c2.4,0.7,4.7,1.7,6.8,3c0.1,0,0.2,0.1,0.3,0.1c1.7,0,3.4,0,5.1,0c0.8,0,1.5,0,2.3,0c0.2,0,0.3,0,0.4,0c0.1,0,0.1,0,0.2,0l0.4,0V5
			c0,0.1,0,0.2-0.1,0.3c-0.1,0.1-0.1,0.2-0.2,0.3l-0.1,0.2c-0.9,1.4-1.6,2.7-1.9,3.9c0,0,0,0,0,0.1c2.3,3.2,3,6.8,2,10.5
			c-0.8,3.3-2.7,5.9-5.7,7.7C42.8,29.3,40.5,30,37.9,30C37.9,30,37.9,30,37.9,30z M28.1,24.1l0.4,0.4c0.1,0.1,0.1,0.1,0.2,0.2
			c0.2,0.2,0.3,0.3,0.5,0.5c1.6,1.7,3.6,2.8,5.9,3.4c1,0.2,1.9,0.4,2.9,0.4c2.4,0,4.5-0.6,6.4-1.8c2.8-1.7,4.5-4.1,5.3-7.2
			c0.9-3.5,0.2-6.7-1.9-9.7c-0.2-0.3-0.2-0.6-0.1-0.8c0.4-1.3,1-2.6,2-4.1c-0.7,0-1.4,0-2.1,0c-1.7,0-3.4,0-5.1,0
			c-0.3,0-0.5-0.1-0.8-0.2c-2-1.2-4.2-2.2-6.6-2.9c-1.5-0.5-2.8-0.8-4-0.9c-1.7-0.2-4.6-0.6-8.2-0.4c-1.4,0.1-2.8,0.3-4.3,0.6
			c-1.5,0.3-2.9,0.7-4.3,1.1c-2,0.7-3.9,1.6-5.5,2.6C8.6,5.4,8.3,5.5,8.2,5.5c-2.3,0-4.6,0-6.8,0c0.1,0.1,0.1,0.2,0.2,0.2
			C2.4,7.1,3,8.4,3.3,9.6c0.1,0.2,0,0.5-0.1,0.7c-0.9,1.2-1.5,2.6-1.9,4c-0.4,1.6-0.5,3.3-0.2,4.7l0,0c0.4,2.3,1.3,4.3,2.9,6
			c1.6,1.8,3.6,3,5.9,3.6c1.6,0.4,3.3,0.5,5,0.3c3-0.5,5.5-1.9,7.5-4.2c0,0,0.1-0.1,0.1-0.1c0.1,0,0.1-0.1,0.1-0.1c0,0,0,0,0,0
			l0.4-0.2l0.2,0.3c0.7,1,1.4,2,2,3l0.2,0.3c0.4-0.6,0.9-1.2,1.3-1.9L28.1,24.1z M2.4,9.8C2.4,9.8,2.4,9.8,2.4,9.8
			C2.4,9.8,2.4,9.8,2.4,9.8z M37.9,27.5c-2.8,0-5.4-1.1-7.3-3c-2-2-3.1-4.5-3.1-7.3C27.6,11.6,32.1,7.1,37.8,7
			c2.9-0.1,5.5,1,7.6,2.9c2,1.9,3.1,4.5,3.1,7.3c0,2.8-1.1,5.3-3.1,7.3C43.4,26.4,40.8,27.5,37.9,27.5L37.9,27.5
			C38,27.5,38,27.5,37.9,27.5z M38,7.9c-0.1,0-0.1,0-0.2,0c-5.2,0.1-9.3,4.2-9.3,9.3c0,2.5,1,4.9,2.8,6.7c1.8,1.7,4.2,2.7,6.7,2.7
			c0,0,0,0,0,0h0c2.6,0,5-1,6.7-2.7c1.8-1.8,2.8-4.1,2.8-6.6c0-2.5-1-4.9-2.8-6.7C42.9,8.9,40.5,7.9,38,7.9z M13,27.4
			c-5.7,0-10.4-4.5-10.5-10.1c0-2.8,1-5.4,3-7.4c2-1.9,4.7-3,7.4-3c2.8,0,5.4,1.1,7.4,3c2,1.9,3.1,4.5,3.1,7.3
			C23.5,22.8,18.8,27.4,13,27.4L13,27.4C13.1,27.4,13.1,27.4,13,27.4z M12.9,7.9c-2.5,0-4.9,1-6.7,2.8c-1.8,1.8-2.8,4.2-2.8,6.7
			c0.1,5.1,4.4,9.2,9.6,9.2h0c5.2,0,9.4-4.2,9.4-9.3c0-2.5-1-4.9-2.8-6.6C18,8.8,15.6,7.9,12.9,7.9C13,7.9,12.9,7.9,12.9,7.9z
			 M25.5,18.4L25,15.6c-0.5-2.9-1.8-5.3-3.9-7.2c-2.1-1.9-4.7-2.9-7.7-3.1l-2-0.1l1.8-0.8c3.9-1.6,8.1-2.3,12.9-2.3
			c4.2,0.1,7.9,0.8,11.3,2.3l1.7,0.7l-1.9,0.1c-2.9,0.2-5.5,1.3-7.5,3.1c-2.1,1.9-3.4,4.2-3.8,7.1L25.5,18.4z M15.4,4.6
			c2.4,0.5,4.5,1.5,6.4,3.1l0,0c1.8,1.6,3,3.5,3.7,5.8c0.7-2.2,1.9-4.1,3.7-5.7c1.8-1.6,3.9-2.7,6.3-3.1c-2.8-1-5.9-1.5-9.3-1.6
			C22.3,3,18.7,3.5,15.4,4.6z"/>
		<path class="st1" d="M12.9,19.6c-0.7,0-1.3-0.3-1.8-0.7c-0.5-0.5-0.7-1.1-0.7-1.8c0-1.4,1.1-2.5,2.5-2.5l0,0c0,0,0,0,0,0
			c1.4,0,2.5,1.1,2.5,2.5c0,0.7-0.3,1.3-0.7,1.8C14.2,19.3,13.5,19.6,12.9,19.6C12.9,19.6,12.9,19.6,12.9,19.6z M12.9,15.5
			c-0.9,0-1.6,0.7-1.6,1.6c0,0.4,0.2,0.8,0.5,1.1c0.3,0.3,0.7,0.5,1.1,0.5c0,0,0,0,0,0c0.4,0,0.8-0.2,1.1-0.5
			c0.3-0.3,0.5-0.7,0.5-1.1C14.5,16.2,13.8,15.5,12.9,15.5C12.9,15.5,12.9,15.5,12.9,15.5L12.9,15.5z"/>
	</g>
</g>
</svg>
