<?xml version="1.0" encoding="utf-8"?>
<!-- Generator: Adobe Illustrator 19.2.1, SVG Export Plug-In . SVG Version: 6.00 Build 0)  -->
<svg version="1.1" id="Layer_1" xmlns="http://www.w3.org/2000/svg" xmlns:xlink="http://www.w3.org/1999/xlink" x="0px" y="0px"
	 viewBox="0 0 42 27" style="enable-background:new 0 0 42 27;" xml:space="preserve">
<style type="text/css">
	.st0{fill:none;enable-background:new    ;}
	.st1{fill:#1C449B;}
</style>
<path class="st0" d="z"/>
<path class="st1" d="M37.7,27H4.3C1.9,27,0,25.1,0,22.7V4.3C0,1.9,1.9,0,4.3,0h33.4C40.1,0,42,1.9,42,4.3v18.5
	C42,25.1,40.1,27,37.7,27z M4.3,1C2.5,1,1,2.5,1,4.3v18.5C1,24.5,2.5,26,4.3,26h33.4c1.8,0,3.3-1.5,3.3-3.2V4.3
	C41,2.5,39.5,1,37.7,1H4.3z"/>
<path class="st1" d="M21.1,15c-0.3,0-0.5-0.1-0.7-0.2l-20-8.8L0.8,5l20,8.9l0,0c0.1,0.1,0.3,0.1,0.4,0l0.1-0.1l20-8.9l0.4,0.9
	l-20,8.8C21.6,14.9,21.4,15,21.1,15z"/>
</svg>
